<svg width="165" height="165" viewBox="0 0 165 165" fill="none" xmlns="http://www.w3.org/2000/svg">
<path d="M101.819 84.425C106.17 79.7517 108.622 73.6228 108.694 67.2375C108.694 60.3452 105.956 53.7352 101.082 48.8616C96.2086 43.988 89.5986 41.25 82.7062 41.25C75.8139 41.25 69.2039 43.988 64.3303 48.8616C59.4567 53.7352 56.7188 60.3452 56.7188 67.2375C56.7905 73.6228 59.242 79.7517 63.5938 84.425C57.5345 87.4422 52.3203 91.9183 48.42 97.4506C44.5198 102.983 42.0559 109.398 41.25 116.119C41.0494 117.942 41.5814 119.77 42.7289 121.202C43.8764 122.633 45.5454 123.549 47.3687 123.75C49.1921 123.951 51.0205 123.419 52.4516 122.271C53.8827 121.124 54.7994 119.455 55 117.631C55.8204 110.97 59.0483 104.839 64.0756 100.393C69.1029 95.9472 75.5825 93.493 82.2938 93.493C89.005 93.493 95.4846 95.9472 100.512 100.393C105.539 104.839 108.767 110.97 109.587 117.631C109.779 119.394 110.644 121.015 112.002 122.155C113.36 123.295 115.106 123.867 116.875 123.75H117.631C119.433 123.543 121.081 122.631 122.214 121.215C123.347 119.798 123.875 117.991 123.681 116.187C122.935 109.502 120.549 103.105 116.735 97.5634C112.921 92.0223 107.797 87.5091 101.819 84.425V84.425ZM82.5 79.475C80.0797 79.475 77.7137 78.7573 75.7012 77.4126C73.6888 76.0679 72.1203 74.1567 71.194 71.9206C70.2678 69.6845 70.0255 67.2239 70.4976 64.8501C70.9698 62.4762 72.1353 60.2957 73.8468 58.5843C75.5582 56.8728 77.7387 55.7073 80.1126 55.2351C82.4864 54.763 84.947 55.0053 87.1831 55.9315C89.4192 56.8578 91.3304 58.4263 92.6751 60.4387C94.0198 62.4512 94.7375 64.8171 94.7375 67.2375C94.7375 70.4831 93.4482 73.5957 91.1532 75.8907C88.8582 78.1857 85.7456 79.475 82.5 79.475V79.475ZM130.625 13.75H34.375C28.9049 13.75 23.6589 15.923 19.7909 19.7909C15.923 23.6589 13.75 28.9049 13.75 34.375V130.625C13.75 136.095 15.923 141.341 19.7909 145.209C23.6589 149.077 28.9049 151.25 34.375 151.25H130.625C136.095 151.25 141.341 149.077 145.209 145.209C149.077 141.341 151.25 136.095 151.25 130.625V34.375C151.25 28.9049 149.077 23.6589 145.209 19.7909C141.341 15.923 136.095 13.75 130.625 13.75ZM137.5 130.625C137.5 132.448 136.776 134.197 135.486 135.486C134.197 136.776 132.448 137.5 130.625 137.5H34.375C32.5516 137.5 30.803 136.776 29.5136 135.486C28.2243 134.197 27.5 132.448 27.5 130.625V34.375C27.5 32.5516 28.2243 30.803 29.5136 29.5136C30.803 28.2243 32.5516 27.5 34.375 27.5H130.625C132.448 27.5 134.197 28.2243 135.486 29.5136C136.776 30.803 137.5 32.5516 137.5 34.375V130.625Z" fill="#0C4FB4"/>
</svg>
